<svg width="438" height="132" viewBox="0 0 438 132" fill="none" xmlns="http://www.w3.org/2000/svg">
<path d="M84.0005 46.7134L90.8569 46.7144V65.1421H78.4282V84.8569H78.4292V91.7144H53.1431V65.1421H48.0005V58.2856H60.0005L59.9995 84.8569H71.5708V58.2856H83.9995V46.7144H48.0005V39.8569H84.0005V46.7134ZM48.0005 46.7144L47.9995 58.2856H41.1431V46.7134L48.0005 46.7144Z" fill="url(#paint0_linear_130_685)"></path>
<path d="M358.407 80V52H364.887V74.72H378.927V80H358.407Z" fill="#ffffff"></path>
<path d="M324.221 80V52H337.901C341.421 52 344.061 52.6667 345.821 54C347.608 55.3333 348.501 57.0933 348.501 59.28C348.501 60.7467 348.141 62.0267 347.421 63.12C346.701 64.1867 345.714 65.0133 344.461 65.6C343.208 66.1867 341.768 66.48 340.141 66.48L340.901 64.84C342.661 64.84 344.221 65.1333 345.581 65.72C346.941 66.28 347.994 67.12 348.741 68.24C349.514 69.36 349.901 70.7333 349.901 72.36C349.901 74.76 348.954 76.64 347.061 78C345.168 79.3333 342.381 80 338.701 80H324.221ZM330.661 75.12H338.221C339.901 75.12 341.168 74.8533 342.021 74.32C342.901 73.76 343.341 72.88 343.341 71.68C343.341 70.5067 342.901 69.64 342.021 69.08C341.168 68.4933 339.901 68.2 338.221 68.2H330.181V63.48H337.101C338.674 63.48 339.874 63.2133 340.701 62.68C341.554 62.12 341.981 61.28 341.981 60.16C341.981 59.0667 341.554 58.2533 340.701 57.72C339.874 57.16 338.674 56.88 337.101 56.88H330.661V75.12Z" fill="#ffffff"></path>
<path d="M286.316 80L298.796 52H305.196L317.716 80H310.916L300.676 55.28H303.236L292.956 80H286.316ZM292.556 74L294.276 69.08H308.676L310.436 74H292.556Z" fill="#ffffff"></path>
<path d="M254.091 80V52H259.451L275.971 72.16H273.371V52H279.771V80H274.451L257.891 59.84H260.491V80H254.091Z" fill="#ffffff"></path>
<path d="M243.096 63.2803H230.096H223.656V80H245.335V74.7998H230.096V68.3203H243.096V63.2803Z" fill="#ffffff"></path>
<path d="M223.656 52V57.2002H230.096H244.816V52H223.656Z" fill="#ffffff"></path>
<path d="M405.591 63.2803H392.591H386.15V80H407.83V74.7998H392.591V68.3203H405.591V63.2803Z" fill="#ffffff"></path>
<path d="M386.15 52V57.2002H392.591H407.31V52H386.15Z" fill="#ffffff"></path>
<path d="M196.246 73.6L195.886 66.12L209.286 52H216.486L204.406 65L200.806 68.84L196.246 73.6ZM190.446 80V52H196.886V80H190.446ZM209.606 80L199.646 67.8L203.886 63.2L217.166 80H209.606Z" fill="#ffffff"></path>
<path d="M166.696 80.48C164.483 80.48 162.429 80.12 160.536 79.4C158.669 78.68 157.043 77.6667 155.656 76.36C154.296 75.0534 153.229 73.52 152.456 71.76C151.709 70 151.336 68.08 151.336 66C151.336 63.92 151.709 62 152.456 60.24C153.229 58.48 154.309 56.9467 155.696 55.64C157.083 54.3334 158.709 53.32 160.576 52.6C162.443 51.88 164.469 51.52 166.656 51.52C168.869 51.52 170.896 51.88 172.736 52.6C174.603 53.32 176.216 54.3334 177.576 55.64C178.963 56.9467 180.043 58.48 180.816 60.24C181.589 61.9734 181.976 63.8934 181.976 66C181.976 68.08 181.589 70.0134 180.816 71.8C180.043 73.56 178.963 75.0934 177.576 76.4C176.216 77.68 174.603 78.68 172.736 79.4C170.896 80.12 168.883 80.48 166.696 80.48ZM166.656 74.96C167.909 74.96 169.056 74.7467 170.096 74.32C171.163 73.8934 172.096 73.28 172.896 72.48C173.696 71.68 174.309 70.7334 174.736 69.64C175.189 68.5467 175.416 67.3334 175.416 66C175.416 64.6667 175.189 63.4534 174.736 62.36C174.309 61.2667 173.696 60.32 172.896 59.52C172.123 58.72 171.203 58.1067 170.136 57.68C169.069 57.2534 167.909 57.04 166.656 57.04C165.403 57.04 164.243 57.2534 163.176 57.68C162.136 58.1067 161.216 58.72 160.416 59.52C159.616 60.32 158.989 61.2667 158.536 62.36C158.109 63.4534 157.896 64.6667 157.896 66C157.896 67.3067 158.109 68.52 158.536 69.64C158.989 70.7334 159.603 71.68 160.376 72.48C161.176 73.28 162.109 73.8934 163.176 74.32C164.243 74.7467 165.403 74.96 166.656 74.96Z" fill="#ffffff"></path>
<path d="M130.96 80V57.28H122V52H146.4V57.28H137.44V80H130.96Z" fill="#ffffff"></path>
<defs>
<linearGradient id="paint0_linear_130_685" x1="66" y1="39.8569" x2="66" y2="91.7144" gradientUnits="userSpaceOnUse">
<stop stop-color="#196AF2"></stop>
<stop offset="1" stop-color="#1047A0"></stop>
</linearGradient>
</defs>
</svg>